<?xml version="1.0" encoding="UTF-8"?>
<svg width="61px" height="62px" viewBox="0 0 61 62" version="1.1" xmlns="http://www.w3.org/2000/svg" xmlns:xlink="http://www.w3.org/1999/xlink">
    <!-- Generator: Sketch 49.3 (51167) - http://www.bohemiancoding.com/sketch -->
    <title>Build</title>
    <desc>Created with Sketch.</desc>
    <defs></defs>
    <g id="Web-UI" stroke="none" stroke-width="1" fill="none" fill-rule="evenodd" fill-opacity="0.427677763">
        <g id="Telegram-Mac-App-Page" transform="translate(-792.000000, -1464.000000)" fill="#6D7D90">
            <g id="Why-Telegram" transform="translate(395.000000, 1073.000000)">
                <g id="Features-Cols" transform="translate(0.000000, 145.000000)">
                    <g id="Group-7-Copy-7" transform="translate(397.000000, 242.000000)">
                        <g id="Build" transform="translate(0.000000, 4.000000)">
                            <path d="M47.55865,37.2960537 C46.8682409,37.9873075 46.5909682,38.9894866 46.8294227,39.9389194 C47.0678773,40.8855761 47.7887864,41.6351284 48.7231955,41.9182925 C51.0911045,42.6289791 52.68265,44.7499343 52.68265,47.1956955 C52.68265,50.2577552 50.1955136,52.7479343 47.1371955,52.7479343 C44.6944227,52.7479343 42.5760591,51.1544418 41.8634682,48.7836358 C41.5834227,47.8480836 40.8320136,47.1318448 39.8837409,46.8930985 C38.9437864,46.6515761 37.9400591,46.9291881 37.2468773,47.6204418 L30.5008318,54.3747403 L26.1920136,50.0634269 C27.1929682,48.369994 27.7281045,46.4378149 27.7281045,44.4195761 C27.7281045,38.2954567 22.7510591,33.3150985 16.6371955,33.3150985 C14.6214227,33.3150985 12.6888318,33.8481134 11.0002409,34.8502925 L6.69419545,30.5389791 L13.4402409,23.7874567 C14.13065,23.096203 14.4079227,22.0912478 14.1694682,21.1473672 C13.9310136,20.2007104 13.21565,19.445606 12.2812409,19.1652179 C9.91055909,18.4489791 8.31901364,16.3280239 8.31901364,13.8822627 C8.31901364,10.820203 10.80615,8.33002388 13.8644682,8.33002388 C16.3072409,8.33002388 18.4256045,9.92629254 19.1381955,12.2970985 C19.4182409,13.2326507 20.16965,13.9516657 21.11515,14.1904119 C22.0578773,14.4291582 23.0616045,14.1543224 23.7520136,13.4602925 L30.5008318,6.70321791 L34.8068773,11.0145313 C33.8059227,12.7079642 33.2735591,14.6429194 33.2735591,16.6583821 C33.2735591,22.7797254 38.2478318,27.7628597 44.3644682,27.7628597 C46.3774682,27.7628597 48.3100591,27.2298448 49.99865,26.2276657 L54.3074682,30.5389791 L47.55865,37.2960537 Z M60.1884227,28.5762627 L52.2057409,20.5838149 C51.1659682,19.5427701 49.3248773,19.5427701 48.2851045,20.5838149 C47.2370136,21.6331881 45.8423318,22.2106209 44.3644682,22.2106209 C41.30615,22.2106209 38.8190136,19.7204418 38.8190136,16.6583821 C38.8190136,15.1759343 39.3957409,13.7823224 40.4438318,12.7329493 C41.5251955,11.6474866 41.5251955,9.89020299 40.4438318,8.80751642 L32.46115,0.815068657 C31.4213773,-0.225976119 29.5802864,-0.225976119 28.5405136,0.815068657 L22.4626955,6.90032239 C20.4164227,4.33796418 17.2998773,2.77778507 13.8644682,2.77778507 C7.74783182,2.77778507 2.77355909,7.75814328 2.77355909,13.8822627 C2.77355909,17.3218746 4.33183182,20.4422328 6.89105909,22.491009 L0.813240909,28.5762627 C0.291968182,29.095397 0.000831818182,29.8033075 0.000831818182,30.5389791 C0.000831818182,31.2746507 0.291968182,31.9797851 0.813240909,32.5016955 L8.79592273,40.4941433 C9.87728636,41.579606 11.6324227,41.579606 12.7165591,40.4941433 C13.76465,39.4447701 15.1565591,38.8673373 16.6371955,38.8673373 C19.6955136,38.8673373 22.18265,41.3575164 22.18265,44.4195761 C22.18265,45.9020239 21.6059227,47.2956358 20.5578318,48.345009 C20.0365591,48.8641433 19.7454227,49.5720537 19.7454227,50.3077254 C19.7454227,51.043397 20.0365591,51.7513075 20.5578318,52.2704418 L28.5405136,60.2628896 C29.0811955,60.8042328 29.7910136,61.0762925 30.5008318,61.0762925 C31.21065,61.0762925 31.9176955,60.8042328 32.46115,60.2628896 L38.5389682,54.1804119 C40.5852409,56.739994 43.6990136,58.3001731 47.1371955,58.3001731 C53.2510591,58.3001731 58.2281045,53.3170388 58.2281045,47.1956955 C58.2281045,43.7533075 56.6698318,40.6357254 54.1106045,38.5869493 L60.1884227,32.5016955 C61.2697864,31.4162328 61.2697864,29.6617254 60.1884227,28.5762627 L60.1884227,28.5762627 Z" id="Fill-859"></path>
                        </g>
                    </g>
                </g>
            </g>
        </g>
    </g>
</svg>