<?xml version="1.0" encoding="UTF-8"?>
<svg width="63px" height="56px" viewBox="0 0 63 56" version="1.1" xmlns="http://www.w3.org/2000/svg" xmlns:xlink="http://www.w3.org/1999/xlink">
    <!-- Generator: Sketch 49.3 (51167) - http://www.bohemiancoding.com/sketch -->
    <title>connect</title>
    <desc>Created with Sketch.</desc>
    <defs></defs>
    <g id="Web-UI" stroke="none" stroke-width="1" fill="none" fill-rule="evenodd" fill-opacity="0.427677763">
        <g id="Telegram-Mac-App-Page" transform="translate(-395.000000, -1223.000000)" fill="#6D7D90">
            <g id="Why-Telegram" transform="translate(395.000000, 1073.000000)">
                <g id="Features-Cols" transform="translate(0.000000, 145.000000)">
                    <g id="Group-7">
                        <g id="connect" transform="translate(0.000000, 5.000000)">
                            <path d="M13.6956522,10.3708328 L13.6956522,16.5262426 L8.44473913,16.5262426 C9.80882609,14.1632262 11.5865217,12.0728656 13.6956522,10.3708328 L13.6956522,10.3708328 Z M8.44473913,38.5590295 L13.6956522,38.5590295 L13.6956522,44.7144393 C11.5865217,43.0124066 9.80882609,40.9220459 8.44473913,38.5590295 L8.44473913,38.5590295 Z M6.19865217,33.0508328 C5.74669565,31.2882098 5.47826087,29.4484721 5.47826087,27.5426361 C5.47826087,25.6368 5.74669565,23.7970623 6.19865217,22.0344393 L13.6956522,22.0344393 L13.6956522,33.0508328 L6.19865217,33.0508328 Z M0,27.5426361 C0,42.7287344 12.2877391,55.0836197 27.3913043,55.0836197 L27.3913043,49.575423 C24.485087,49.575423 21.713087,48.9888 19.173913,47.953259 L19.173913,38.5590295 L27.3913043,38.5590295 L27.3913043,33.0508328 L19.173913,33.0508328 L19.173913,22.0344393 L27.3913043,22.0344393 L27.3913043,16.5262426 L19.173913,16.5262426 L19.173913,7.13201311 C21.713087,6.09371803 24.485087,5.50984918 27.3913043,5.50984918 L27.3913043,0.00165245902 C12.2877391,0.00165245902 0,12.3565377 0,27.5426361 L0,27.5426361 Z" id="Fill-1392"></path>
                            <path d="M35.6086957,44.0655738 L57.5244783,44.0655738 L57.5244783,49.5737705 L35.6086957,49.5737705 L35.6086957,44.0655738 Z M57.5217391,16.5245902 L57.5244783,38.557377 L35.6086957,38.557377 L35.6086957,16.5245902 L57.5217391,16.5245902 Z M57.5217391,11.0163934 L35.6086957,11.0163934 L35.6086957,5.50819672 L57.5217391,5.50819672 L57.5217391,11.0163934 Z M57.5217391,0 L35.6086957,0 C32.5874348,0 30.1304348,2.47042623 30.1304348,5.50819672 L30.1304348,49.5737705 C30.1304348,52.6142951 32.5874348,55.0819672 35.6086957,55.0819672 L57.5217391,55.0819672 C60.543,55.0819672 63,52.6142951 63,49.5737705 L63,5.50819672 C63,2.47042623 60.543,0 57.5217391,0 L57.5217391,0 Z" id="Fill-1393"></path>
                        </g>
                    </g>
                </g>
            </g>
        </g>
    </g>
</svg>