<?xml version="1.0" encoding="UTF-8"?>
<svg width="66px" height="66px" viewBox="0 0 66 66" version="1.1" xmlns="http://www.w3.org/2000/svg" xmlns:xlink="http://www.w3.org/1999/xlink">
    <!-- Generator: Sketch 49.3 (51167) - http://www.bohemiancoding.com/sketch -->
    <title>Coordinate</title>
    <desc>Created with Sketch.</desc>
    <defs></defs>
    <g id="Web-UI" stroke="none" stroke-width="1" fill="none" fill-rule="evenodd" fill-opacity="0.427677763">
        <g id="Telegram-Mac-App-Page" transform="translate(-789.000000, -1218.000000)" fill="#6D7D90">
            <g id="Why-Telegram" transform="translate(395.000000, 1073.000000)">
                <g id="Features-Cols" transform="translate(0.000000, 145.000000)">
                    <g id="Group-7-Copy" transform="translate(394.000000, 0.000000)">
                        <g id="Coordinate">
                            <path d="M22,60.5 L44,60.5 C44,55.9515 40.2985,52.25 35.75,52.25 L30.25,52.25 C25.7015,52.25 22,55.9515 22,60.5 L22,60.5 Z M49.5,66 L16.5,66 L16.5,60.5 C16.5,52.91825 22.66825,46.75 30.25,46.75 L35.75,46.75 C43.33175,46.75 49.5,52.91825 49.5,60.5 L49.5,66 Z" id="Fill-1507"></path>
                            <path d="M11,60.5 C11,58.58875 11.28875,56.74625 11.81125,55 L8.25,55 C3.7015,55 0,58.7015 0,63.25 L0,66 L11,66 L11,60.5 Z" id="Fill-1508"></path>
                            <path d="M20.686875,43.8174 C19.977375,40.7759 17.260375,38.4989 14.001625,38.4989 C10.206625,38.4989 7.129375,41.5789 7.129375,45.3739 C7.129375,48.8059 9.651125,51.6274 12.937375,52.14165 C14.628625,48.64915 17.337375,45.74515 20.686875,43.8174" id="Fill-1509"></path>
                            <path d="M57.75,55 L54.18875,55 C54.71125,56.74625 55,58.58875 55,60.5 L55,66 L66,66 L66,63.25 C66,58.7015 62.2985,55 57.75,55" id="Fill-1510"></path>
                            <path d="M52.50245,38.5 C49.14745,38.5 46.36445,40.909 45.75945,44.088 C48.9192,46.02125 51.4712,48.8345 53.0882,52.19225 C56.60545,51.88975 59.3802,48.972 59.3802,45.375 C59.3802,41.57725 56.3002,38.5 52.50245,38.5" id="Fill-1511"></path>
                            <path d="M33,35.75 C31.48475,35.75 30.25,36.98475 30.25,38.5 C30.25,40.01525 31.48475,41.25 33,41.25 C34.51525,41.25 35.75,40.01525 35.75,38.5 C35.75,36.98475 34.51525,35.75 33,35.75 M33,46.75 C28.4515,46.75 24.75,43.0485 24.75,38.5 C24.75,33.9515 28.4515,30.25 33,30.25 C37.5485,30.25 41.25,33.9515 41.25,38.5 C41.25,43.0485 37.5485,46.75 33,46.75" id="Fill-1512"></path>
                            <path d="M44,11 L22,11 L22,5.5 L44,5.5 L44,11 Z M44,22 L22,22 L22,16.5 L44,16.5 L44,22 Z M46.75,0 L19.25,0 C16.214,0 13.75,2.464 13.75,5.5 L13.75,35.75 L22,27.5 L46.75,27.5 C49.786,27.5 52.25,25.036 52.25,22 L52.25,5.5 C52.25,2.464 49.786,0 46.75,0 L46.75,0 Z" id="Fill-1513"></path>
                        </g>
                    </g>
                </g>
            </g>
        </g>
    </g>
</svg>