<?xml version="1.0" encoding="UTF-8"?>
<svg width="64px" height="64px" viewBox="0 0 64 64" version="1.1" xmlns="http://www.w3.org/2000/svg" xmlns:xlink="http://www.w3.org/1999/xlink">
    <!-- Generator: Sketch 49.3 (51167) - http://www.bohemiancoding.com/sketch -->
    <title>Encrypt</title>
    <desc>Created with Sketch.</desc>
    <defs></defs>
    <g id="Web-UI" stroke="none" stroke-width="1" fill="none" fill-rule="evenodd" fill-opacity="0.427677763">
        <g id="Telegram-Mac-App-Page" transform="translate(-790.000000, -1336.000000)" fill="#6D7D90">
            <g id="Why-Telegram" transform="translate(395.000000, 1073.000000)">
                <g id="Features-Cols" transform="translate(0.000000, 145.000000)">
                    <g id="Group-7-Copy-4" transform="translate(395.000000, 118.000000)">
                        <g id="Encrypt">
                            <path d="M31.8171429,32.1306122 L13.2571429,32.1306122 C8.87168,32.1306122 5.30285714,28.5266286 5.30285714,24.0979592 C5.30285714,19.6692898 8.87168,16.0653061 13.2571429,16.0653061 C14.7711086,16.0653061 16.2559086,16.5097796 17.5471543,17.3505306 C18.2736457,17.8244571 19.1830857,17.9128163 19.9785143,17.5834776 C20.7792457,17.2568163 21.3705143,16.5579755 21.56672,15.7091918 C22.9693257,9.61240816 28.2748343,5.35510204 34.4685714,5.35510204 C41.77856,5.35510204 47.7257143,11.360849 47.7257143,18.7428571 C47.7257143,20.6492735 47.3173943,22.4566204 46.6015086,24.0979592 L52.2464,24.0979592 C52.7501714,22.4003918 53.0285714,20.6037551 53.0285714,18.7428571 C53.0285714,8.4075102 44.7030857,0 34.4685714,0 C26.8907886,0 20.2648686,4.54915918 17.4013257,11.3876245 C16.0676571,10.9404735 14.6730057,10.7102041 13.2571429,10.7102041 C5.94715429,10.7102041 0,16.715951 0,24.0979592 C0,31.4799673 5.94715429,37.4857143 13.2571429,37.4857143 L31.8171429,37.4857143 L31.8171429,32.1306122 Z" id="Fill-2579"></path>
                            <path d="M58.6971429,58.6549451 L42.7885714,58.6549451 L42.7885714,45.2923077 L58.6971429,45.2923077 L58.6971429,58.6549451 Z M50.7428571,34.6021978 C53.6700343,34.6021978 56.0457143,36.9994549 56.0457143,39.9472527 L45.44,39.9472527 C45.44,36.9994549 47.81568,34.6021978 50.7428571,34.6021978 L50.7428571,34.6021978 Z M61.3485714,39.9472527 C61.3485714,34.0516571 56.5892571,29.2571429 50.7428571,29.2571429 C44.8964571,29.2571429 40.1371429,34.0516571 40.1371429,39.9472527 C38.6709029,39.9472527 37.4857143,41.1445451 37.4857143,42.6197802 L37.4857143,61.3274725 C37.4857143,62.8027077 38.6709029,64 40.1371429,64 L61.3485714,64 C62.8148114,64 64,62.8027077 64,61.3274725 L64,42.6197802 C64,41.1445451 62.8148114,39.9472527 61.3485714,39.9472527 L61.3485714,39.9472527 Z" id="Fill-2580"></path>
                            <path d="M53.0285714,50.2857143 C53.0285714,51.8025143 51.8025143,53.0285714 50.2857143,53.0285714 C48.7689143,53.0285714 47.5428571,51.8025143 47.5428571,50.2857143 C47.5428571,48.7716571 48.7689143,47.5428571 50.2857143,47.5428571 C51.8025143,47.5428571 53.0285714,48.7716571 53.0285714,50.2857143" id="Fill-2581"></path>
                        </g>
                    </g>
                </g>
            </g>
        </g>
    </g>
</svg>