<?xml version="1.0" encoding="UTF-8"?>
<svg width="58px" height="58px" viewBox="0 0 58 58" version="1.1" xmlns="http://www.w3.org/2000/svg" xmlns:xlink="http://www.w3.org/1999/xlink">
    <!-- Generator: Sketch 49.3 (51167) - http://www.bohemiancoding.com/sketch -->
    <title>Enjoy</title>
    <desc>Created with Sketch.</desc>
    <defs></defs>
    <g id="Web-UI" stroke="none" stroke-width="1" fill="none" fill-rule="evenodd" fill-opacity="0.427677763">
        <g id="Telegram-Mac-App-Page" transform="translate(-1196.000000, -1465.000000)" fill="#6D7D90">
            <g id="Why-Telegram" transform="translate(395.000000, 1073.000000)">
                <g id="Features-Cols" transform="translate(0.000000, 145.000000)">
                    <g id="Group-7-Copy-6" transform="translate(801.000000, 242.000000)">
                        <g id="Enjoy" transform="translate(0.000000, 5.000000)">
                            <path d="M38.6666667,25.8438333 C39.1306759,25.8438333 39.5946852,25.9791667 39.9982766,26.245 L45.2812153,29.7370833 L42.9128347,24.2923333 C42.4874929,23.3111667 42.7533315,22.1705 43.5701812,21.48175 L48.9763724,16.9166667 L43.5000964,16.9166667 C42.51166,16.9166667 41.6247257,16.3149167 41.2549683,15.3965833 L38.6666667,8.92233333 L36.078365,15.3965833 C35.7086076,16.3149167 34.8216733,16.9166667 33.8332369,16.9166667 L28.356961,16.9166667 L33.7631522,21.48175 C34.5800018,22.1705 34.8458404,23.3111667 34.4204986,24.2923333 L32.052118,29.7346667 L37.3350568,26.245 C37.7386482,25.9791667 38.2026574,25.8438333 38.6666667,25.8438333 M50.7502411,38.6666667 C50.2886485,38.6666667 49.8222226,38.53375 49.4186312,38.2655 L38.6666667,31.1580833 L33.9564894,34.27075 L31.6195261,30.73275 L31.6098592,30.7545 L27.1776041,28.826 L29.2704792,24.012 L20.1908814,16.3463333 C19.4151159,15.6914167 19.1323603,14.6208333 19.4803672,13.6710833 C19.8283741,12.7165 20.7346422,12.0833333 21.7496625,12.0833333 L32.1971209,12.0833333 L36.4215385,1.51766667 C36.7912959,0.60175 37.6782303,0 38.6666667,0 C39.6551031,0 40.5420374,0.60175 40.9117948,1.51766667 L45.1362124,12.0833333 L55.5836709,12.0833333 C56.5986911,12.0833333 57.5049592,12.7165 57.8529661,13.6710833 C58.2009731,14.6208333 57.9182174,15.6914167 57.142452,16.3463333 L48.0628541,24.012 L52.9663686,35.28575 C53.3941272,36.2669167 53.1234551,37.4124167 52.3041888,38.09875 C51.8570965,38.47575 51.3036688,38.6666667 50.7502411,38.6666667" id="Fill-1214"></path>
                            <path d="M39.7847358,50.718775 L14.4671767,50.718775 L14.4671767,40.3333211 L25.303092,36.6999898 L25.9999277,38.1052662 L22.4072455,41.721608 C21.946707,42.1851793 21.724877,42.8065105 21.7224658,43.43755 L21.700765,43.43755 L21.700765,45.864625 L43.40153,45.864625 L39.7847358,50.718775 Z M4.82239222,38.5834 L9.64478444,38.5834 L9.64478444,53.14585 L4.82239222,53.14585 L4.82239222,38.5834 Z M50.3795315,42.3526475 C49.9720394,41.5298691 49.1377655,41.010475 48.2239222,41.010475 L29.9325885,41.010475 L30.639069,40.299342 C31.3720726,39.5615112 31.5553235,38.4329214 31.0899627,37.4984975 L28.6787665,32.6443475 C28.143481,31.5642991 26.9041262,31.0449051 25.7612192,31.4259559 L14.2911593,35.2752968 C13.9391247,34.374852 13.0759165,33.72925 12.0559806,33.72925 L2.41119611,33.72925 C1.08021586,33.72925 0,34.8165796 0,36.156325 L0,55.572925 C0,56.9126704 1.08021586,58 2.41119611,58 L12.0559806,58 C13.3869608,58 14.4671767,56.9126704 14.4671767,55.572925 L40.9903339,55.572925 C41.7498607,55.572925 42.4635747,55.2137179 42.9192908,54.602095 L50.1528791,44.893795 C50.7002206,44.1583913 50.7894349,43.1754259 50.3795315,42.3526475 L50.3795315,42.3526475 Z" id="Fill-1215"></path>
                        </g>
                    </g>
                </g>
            </g>
        </g>
    </g>
</svg>