<?xml version="1.0" encoding="UTF-8"?>
<svg width="60px" height="50px" viewBox="0 0 60 50" version="1.1" xmlns="http://www.w3.org/2000/svg" xmlns:xlink="http://www.w3.org/1999/xlink">
    <!-- Generator: Sketch 49.3 (51167) - http://www.bohemiancoding.com/sketch -->
    <title>Send</title>
    <desc>Created with Sketch.</desc>
    <defs></defs>
    <g id="Web-UI" stroke="none" stroke-width="1" fill="none" fill-rule="evenodd" fill-opacity="0.427677763">
        <g id="Telegram-Mac-App-Page" transform="translate(-401.000000, -1345.000000)" fill="#6D7D90">
            <g id="Why-Telegram" transform="translate(395.000000, 1073.000000)">
                <g id="Features-Cols" transform="translate(0.000000, 145.000000)">
                    <g id="Group-7-Copy-5" transform="translate(6.000000, 121.000000)">
                        <g id="Send" transform="translate(0.000000, 6.000000)">
                            <path d="M10.0421538,44.4444444 L31.3846154,44.4444444 C43.5996923,44.4444444 53.5384615,35.7222222 53.5384615,25 C53.5384615,14.2777778 43.5996923,5.55555556 31.3846154,5.55555556 C19.1695385,5.55555556 9.23076923,14.2777778 9.23076923,25 C9.23076923,29.2694444 10.8036923,33.3333333 13.7778462,36.7555556 C14.7083077,37.8277778 14.6833846,39.4305556 13.7196923,40.4722222 L10.0421538,44.4444444 Z M31.3846154,50 L3.69230769,50 C2.59015385,50 1.59323077,49.3444444 1.15292308,48.3333333 C0.712615385,47.3194444 0.914769231,46.1416667 1.66246154,45.3333333 L8.04830769,38.4333333 C5.19046154,34.4222222 3.69230769,29.8194444 3.69230769,25 C3.69230769,11.2166667 16.1150769,0 31.3846154,0 C46.6541538,0 59.0769231,11.2166667 59.0769231,25 C59.0769231,38.7833333 46.6541538,50 31.3846154,50 L31.3846154,50 Z" id="Fill-1285"></path>
                            <polygon id="Fill-1286" points="23.0769231 27.7777778 17.5384615 27.7777778 17.5384615 36.1111111 23.0769231 36.1111111"></polygon>
                            <polygon id="Fill-1287" points="34.1538462 22.2222222 28.6153846 22.2222222 28.6153846 36.1111111 34.1538462 36.1111111"></polygon>
                            <polygon id="Fill-1288" points="45.2307692 16.6666667 39.6923077 16.6666667 39.6923077 36.1111111 45.2307692 36.1111111"></polygon>
                        </g>
                    </g>
                </g>
            </g>
        </g>
    </g>
</svg>