<?xml version="1.0" encoding="UTF-8"?>
<svg width="52px" height="62px" viewBox="0 0 52 62" version="1.1" xmlns="http://www.w3.org/2000/svg" xmlns:xlink="http://www.w3.org/1999/xlink">
    <!-- Generator: Sketch 49.3 (51167) - http://www.bohemiancoding.com/sketch -->
    <title>Store</title>
    <desc>Created with Sketch.</desc>
    <defs></defs>
    <g id="Web-UI" stroke="none" stroke-width="1" fill="none" fill-rule="evenodd" fill-opacity="0.427677763">
        <g id="Telegram-Mac-App-Page" transform="translate(-406.000000, -1461.000000)" fill="#6D7D90">
            <g id="Why-Telegram" transform="translate(395.000000, 1073.000000)">
                <g id="Features-Cols" transform="translate(0.000000, 145.000000)">
                    <g id="Group-7-Copy-8" transform="translate(11.000000, 242.000000)">
                        <g id="Store" transform="translate(0.000000, 1.000000)">
                            <path d="M5.2,46.7313433 L5.2,56.9104478 L46.7922,56.9104478 L46.8,46.7313433 L5.2,46.7313433 Z M46.8,62 L5.2,62 C2.3322,62 0,59.7173358 0,56.9104478 L0,46.7313433 C0,43.9244552 2.3322,41.641791 5.2,41.641791 L46.8,41.641791 C49.6678,41.641791 52,43.9244552 52,46.7313433 L52,56.9104478 C52,59.7173358 49.6678,62 46.8,62 L46.8,62 Z" id="Fill-2128"></path>
                            <path d="M13,15.466951 C8.6996,15.466951 5.2,18.9367036 5.2,23.2004264 C5.2,27.4641493 8.6996,30.9339019 13,30.9339019 L33.8,30.9339019 C40.9682,30.9339019 46.8,25.1518401 46.8,18.0447761 C46.8,10.9377122 40.9682,5.15565032 33.8,5.15565032 C27.7264,5.15565032 22.5238,9.25439232 21.1484,15.1241002 C20.9586,15.9412708 20.3762,16.6140832 19.591,16.9285778 C18.8084,17.2456503 17.9166,17.1605821 17.2068,16.704307 C15.9406,15.8948699 14.4846,15.466951 13,15.466951 M33.8,36.0895522 L13,36.0895522 C5.8318,36.0895522 0,30.3074904 0,23.2004264 C0,16.0933625 5.8318,10.3113006 13,10.3113006 C14.3884,10.3113006 15.7586,10.5329936 17.0638,10.9634904 C19.8718,4.37972495 26.3692,0 33.8,0 C43.836,0 52,8.094371 52,18.0447761 C52,27.9951812 43.836,36.0895522 33.8,36.0895522" id="Fill-2129"></path>
                            <path d="M34.3571429,51.8208955 C34.3571429,53.3560896 33.1091429,54.5970149 31.5714286,54.5970149 C30.0337143,54.5970149 28.7857143,53.3560896 28.7857143,51.8208955 C28.7857143,50.2884776 30.0337143,49.0447761 31.5714286,49.0447761 C33.1091429,49.0447761 34.3571429,50.2884776 34.3571429,51.8208955" id="Fill-2130"></path>
                            <path d="M41.7857143,51.8208955 C41.7857143,53.3560896 40.5377143,54.5970149 39,54.5970149 C37.4622857,54.5970149 36.2142857,53.3560896 36.2142857,51.8208955 C36.2142857,50.2884776 37.4622857,49.0447761 39,49.0447761 C40.5377143,49.0447761 41.7857143,50.2884776 41.7857143,51.8208955" id="Fill-2131"></path>
                        </g>
                    </g>
                </g>
            </g>
        </g>
    </g>
</svg>