<?xml version="1.0" encoding="UTF-8"?>
<svg width="66px" height="58px" viewBox="0 0 66 58" version="1.1" xmlns="http://www.w3.org/2000/svg" xmlns:xlink="http://www.w3.org/1999/xlink">
    <!-- Generator: Sketch 49.3 (51167) - http://www.bohemiancoding.com/sketch -->
    <title>Synchronize</title>
    <desc>Created with Sketch.</desc>
    <defs></defs>
    <g id="Web-UI" stroke="none" stroke-width="1" fill="none" fill-rule="evenodd" fill-opacity="0.427677763">
        <g id="Telegram-Mac-App-Page" transform="translate(-1189.000000, -1223.000000)" fill="#6D7D90">
            <g id="Why-Telegram" transform="translate(395.000000, 1073.000000)">
                <g id="Features-Cols" transform="translate(0.000000, 145.000000)">
                    <g id="Group-7-Copy-2" transform="translate(794.000000, 0.000000)">
                        <g id="Synchronize" transform="translate(0.000000, 5.000000)">
                            <path d="M63.25,0 L11,0 C9.482,0 8.25,1.23733333 8.25,2.76190476 L8.25,5.52380952 L60.5,5.52380952 L60.5,33.1428571 L38.5,33.1428571 L38.5,38.6666667 L60.5,38.6666667 L60.5,41.4285714 L38.5,41.4285714 C36.982,41.4285714 35.75,42.6659048 35.75,44.1904762 L35.75,52.4761905 L27.5,52.4761905 L27.5,58 L49.5,58 L49.5,52.4761905 L41.25,52.4761905 L41.25,46.952381 L63.25,46.952381 C64.768,46.952381 66,45.7178095 66,44.1904762 L66,2.76190476 C66,1.23733333 64.768,0 63.25,0" id="Fill-4346"></path>
                            <path d="M8.25,13.8095238 L27.5,13.8095238 L27.5,16.5714286 L8.25,16.5714286 L8.25,13.8095238 Z M24.75,41.4285714 L24.75,46.952381 L27.5,46.952381 C30.53325,46.952381 33,44.4777143 33,41.4285714 L33,13.8095238 C33,10.7659048 30.53325,8.28571429 27.5,8.28571429 L8.25,8.28571429 C5.21675,8.28571429 2.75,10.7659048 2.75,13.8095238 L2.75,22.098 L27.5,22.0952381 L27.5,33.1428571 L24.75,33.1428571 L24.75,38.6666667 L27.5,38.6666667 L27.5,41.4285714 L24.75,41.4285714 Z" id="Fill-4347"></path>
                            <path d="M5.5,49.7142857 L16.5055,49.7142857 L16.5055,52.4761905 L5.5,52.4761905 L5.5,49.7142857 Z M16.5,30.3809524 L16.50275,44.1904762 L5.5,44.1904762 L5.5,30.3809524 L16.5,30.3809524 Z M16.5,24.8571429 L5.5,24.8571429 C2.46675,24.8571429 0,27.3373333 0,30.3809524 L0,52.4761905 C0,55.5253333 2.46675,58 5.5,58 L16.5,58 C19.53325,58 22,55.5253333 22,52.4761905 L22,30.3809524 C22,27.3373333 19.53325,24.8571429 16.5,24.8571429 L16.5,24.8571429 Z" id="Fill-4348"></path>
                            <path d="M38.5,13.8095238 L38.5,24.8571429 L42.1666667,24.8571429 L42.1666667,26.6984127 L44.6114167,24.8571429 L53.1666667,24.8571429 L53.1666667,13.8095238 L38.5,13.8095238 Z M40.3333333,30.3809524 L40.3333333,26.6984127 L38.5,26.6984127 C37.4889167,26.6984127 36.6666667,25.8726032 36.6666667,24.8571429 L36.6666667,13.8095238 C36.6666667,12.7940635 37.4889167,11.968254 38.5,11.968254 L53.1666667,11.968254 C54.17775,11.968254 55,12.7940635 55,13.8095238 L55,24.8571429 C55,25.8726032 54.17775,26.6984127 53.1666667,26.6984127 L45.2219167,26.6984127 L40.3333333,30.3809524 Z" id="Fill-1249"></path>
                        </g>
                    </g>
                </g>
            </g>
        </g>
    </g>
</svg>