<?xml version="1.0" encoding="UTF-8"?>
<svg width="15px" height="20px" viewBox="0 0 15 20" version="1.1" xmlns="http://www.w3.org/2000/svg" xmlns:xlink="http://www.w3.org/1999/xlink">
    <!-- Generator: Sketch 49.3 (51167) - http://www.bohemiancoding.com/sketch -->
    <title>Fill 2648</title>
    <desc>Created with Sketch.</desc>
    <defs></defs>
    <g id="Web-UI" stroke="none" stroke-width="1" fill="none" fill-rule="evenodd">
        <g id="Telegram-Mac-App-Page" transform="translate(-954.000000, -1914.000000)" fill="#FFFFFF">
            <g id="Video" transform="translate(1.000000, 1621.000000)">
                <g id="Group-8-Copy" transform="translate(570.000000, 43.000000)">
                    <g id="Play" transform="translate(362.000000, 232.000000)">
                        <path d="M24.1967617,34.4421666 L24.1967617,21.5469471 L32.6661059,27.9945568 L24.1967617,34.4421666 Z M35.3230769,27.9945568 C35.3230769,27.1864911 34.9495858,26.4382821 34.2969731,25.9412111 L25.828958,19.4923001 C25.0460886,18.8963354 23.916311,18.7844294 23.0284388,19.2099326 C22.1232876,19.6432432 21.5384615,20.5606125 21.5384615,21.5469471 L21.5384615,34.4421666 C21.5384615,35.4285012 22.1232876,36.3458705 23.0284388,36.7804823 C23.9482106,37.2202991 25.0301388,37.1057906 25.828958,36.4981148 L34.2983022,30.0479026 C34.9495858,29.5508316 35.3230769,28.8026226 35.3230769,27.9945568 L35.3230769,27.9945568 Z" id="Fill-2648"></path>
                    </g>
                </g>
            </g>
        </g>
    </g>
</svg>