<?xml version="1.0" encoding="UTF-8"?>
<svg width="72px" height="72px" viewBox="0 0 72 72" version="1.1" xmlns="http://www.w3.org/2000/svg" xmlns:xlink="http://www.w3.org/1999/xlink">
    <!-- Generator: Sketch 49.3 (51167) - http://www.bohemiancoding.com/sketch -->
    <title>Cloud-Based</title>
    <desc>Created with Sketch.</desc>
    <defs>
        <linearGradient x1="89.980251%" y1="14.7207755%" x2="0%" y2="100%" id="linearGradient-1">
            <stop stop-color="#0E88C2" offset="0%"></stop>
            <stop stop-color="#2BA1D9" offset="100%"></stop>
        </linearGradient>
    </defs>
    <g id="Web-UI" stroke="none" stroke-width="1" fill="none" fill-rule="evenodd">
        <g id="Telegram-Mac-App-Page" transform="translate(-925.000000, -2448.000000)" fill="url(#linearGradient-1)">
            <g id="Switch-to-Telegram" transform="translate(406.000000, 2321.000000)">
                <g id="Features-Cols-Copy" transform="translate(0.000000, 127.000000)">
                    <g id="Group-7" transform="translate(400.000000, 0.000000)">
                        <g id="Cloud-Based" transform="translate(119.000000, 0.000000)">
                            <path d="M30,36 L15,36 C10.038,36 6,31.962 6,27 C6,22.038 10.038,18 15,18 C16.713,18 18.393,18.498 19.854,19.44 C20.673,19.971 21.702,20.07 22.605,19.701 C23.511,19.335 24.183,18.552 24.402,17.601 C25.989,10.77 31.992,6 39,6 C47.271,6 54,12.729 54,21 C54,25.914 51.591,30.246 47.928,32.982 L56.223,32.982 C58.596,29.58 60,25.452 60,21 C60,9.42 50.58,0 39,0 C30.426,0 22.929,5.097 19.689,12.759 C18.183,12.258 16.602,12 15,12 C6.729,12 0,18.729 0,27 C0,35.271 6.729,42 15,42 L30,42 L30,36 Z" id="Fill-2565"></path>
                            <path d="M48,44.9823 C42.585,44.9823 42,49.1763 42,50.9823 C42,56.1963 49.734,62.5203 54,65.4153 C58.266,62.5203 66,56.1963 66,50.9823 C66,49.1763 65.415,44.9823 60,44.9823 C58.653,44.9823 57,46.6353 57,47.9823 C57,49.6383 55.656,50.9823 54,50.9823 C52.344,50.9823 51,49.6383 51,47.9823 C51,46.6353 49.347,44.9823 48,44.9823 M54,71.9823 C53.466,71.9823 52.932,71.8413 52.455,71.5533 C50.772,70.5453 36,61.3833 36,50.9823 C36,43.8033 40.821,38.9823 48,38.9823 C50.205,38.9823 52.356,39.9783 54,41.5203 C55.644,39.9783 57.795,38.9823 60,38.9823 C67.179,38.9823 72,43.8033 72,50.9823 C72,61.3833 57.228,70.5453 55.545,71.5533 C55.068,71.8413 54.534,71.9823 54,71.9823" id="Fill-2566"></path>
                        </g>
                    </g>
                </g>
            </g>
        </g>
    </g>
</svg>