<?xml version="1.0" encoding="UTF-8"?>
<svg width="60px" height="60px" viewBox="0 0 60 60" version="1.1" xmlns="http://www.w3.org/2000/svg" xmlns:xlink="http://www.w3.org/1999/xlink">
    <!-- Generator: Sketch 49.3 (51167) - http://www.bohemiancoding.com/sketch -->
    <title>Distributed</title>
    <desc>Created with Sketch.</desc>
    <defs>
        <linearGradient x1="89.980251%" y1="14.7207755%" x2="0.945065216%" y2="99.1043098%" id="linearGradient-1">
            <stop stop-color="#495AE6" offset="0%"></stop>
            <stop stop-color="#2077B8" offset="100%"></stop>
        </linearGradient>
    </defs>
    <g id="Web-UI" stroke="none" stroke-width="1" fill="none" fill-rule="evenodd">
        <g id="Telegram-Mac-App-Page" transform="translate(-531.000000, -2692.000000)" fill="url(#linearGradient-1)">
            <g id="Switch-to-Telegram" transform="translate(406.000000, 2321.000000)">
                <g id="Features-Cols-Copy" transform="translate(0.000000, 127.000000)">
                    <g id="Group-7-Copy-11" transform="translate(0.000000, 244.000000)">
                        <g id="Distributed" transform="translate(125.000000, 0.000000)">
                            <path d="M33,36 C28.038,36 24,31.962 24,27 C24,22.038 28.038,18 33,18 C37.962,18 42,22.038 42,27 C42,31.962 37.962,36 33,36 M54,36 C53.115,36 52.281,36.201 51.528,36.546 L46.683,33.084 C47.514,31.221 48,29.169 48,27 C48,23.946 47.073,21.114 45.501,18.741 L52.464,11.778 C52.956,11.907 53.466,12 54,12 C57.312,12 60,9.318 60,6 C60,2.691 57.312,0 54,0 C50.685,0 48,2.691 48,6 C48,6.534 48.093,7.044 48.222,7.536 L41.259,14.499 C38.886,12.927 36.054,12 33,12 C28.455,12 24.426,14.073 21.675,17.277 L11.991,11.895 C11.934,8.634 9.276,6 6,6 C2.685,6 0,8.691 0,12 C0,15.318 2.685,18 6,18 C7.125,18 8.163,17.673 9.063,17.133 L18.759,22.521 C18.312,23.943 18,25.431 18,27 C18,30.054 18.927,32.886 20.499,35.259 L7.536,48.222 C7.041,48.093 6.534,48 6,48 C2.685,48 0,50.691 0,54 C0,57.318 2.685,60 6,60 C9.312,60 12,57.318 12,54 C12,53.466 11.907,52.959 11.778,52.464 L24.741,39.501 C26.313,40.545 28.089,41.307 30,41.697 L30,48.831 C28.212,49.872 27,51.786 27,54 C27,57.318 29.685,60 33,60 C36.312,60 39,57.318 39,54 C39,51.789 37.785,49.875 36,48.834 L36,41.697 C38.748,41.136 41.193,39.795 43.173,37.953 L48.057,41.442 C48.039,41.628 48,41.808 48,42 C48,45.318 50.685,48 54,48 C57.312,48 60,45.318 60,42 C60,38.691 57.312,36 54,36" id="Fill-1073"></path>
                        </g>
                    </g>
                </g>
            </g>
        </g>
    </g>
</svg>