<?xml version="1.0" encoding="UTF-8"?>
<svg width="42px" height="60px" viewBox="0 0 42 60" version="1.1" xmlns="http://www.w3.org/2000/svg" xmlns:xlink="http://www.w3.org/1999/xlink">
    <!-- Generator: Sketch 49.3 (51167) - http://www.bohemiancoding.com/sketch -->
    <title>Fast</title>
    <desc>Created with Sketch.</desc>
    <defs>
        <linearGradient x1="89.980251%" y1="14.7207755%" x2="2.59310114%" y2="97.5423757%" id="linearGradient-1">
            <stop stop-color="#FFB500" offset="0%"></stop>
            <stop stop-color="#FFC535" offset="100%"></stop>
        </linearGradient>
    </defs>
    <g id="Web-UI" stroke="none" stroke-width="1" fill="none" fill-rule="evenodd">
        <g id="Telegram-Mac-App-Page" transform="translate(-1340.000000, -2452.000000)" fill="url(#linearGradient-1)">
            <g id="Switch-to-Telegram" transform="translate(406.000000, 2321.000000)">
                <g id="Features-Cols-Copy" transform="translate(0.000000, 127.000000)">
                    <g id="Group-7" transform="translate(800.000000, 3.000000)">
                        <g id="Fast" transform="translate(134.000000, 0.000000)">
                            <path d="M22.3419,49.3171 C21.4989,48.8941 20.5029,48.8941 19.6569,49.3171 L12.7779,52.7551 L14.3319,41.8951 C16.4289,42.6001 18.6669,42.9991 21.0009,42.9991 C23.3319,42.9991 25.5699,42.6001 27.6699,41.8951 L29.2209,52.7551 L22.3419,49.3171 Z M6.0009,21.9991 C6.0009,13.7281 12.7299,6.9991 21.0009,6.9991 C29.2689,6.9991 36.0009,13.7281 36.0009,21.9991 C36.0009,30.2731 29.2689,36.9991 21.0009,36.9991 C12.7299,36.9991 6.0009,30.2731 6.0009,21.9991 L6.0009,21.9991 Z M33.3129,38.9761 C38.5659,35.1541 42.0009,28.9801 42.0009,21.9991 C42.0009,10.4191 32.5809,0.9991 21.0009,0.9991 C9.4209,0.9991 0.0009,10.4191 0.0009,21.9991 C0.0009,28.9801 3.4359,35.1541 8.6889,38.9761 L6.0309,57.5761 C5.8719,58.6801 6.3399,59.7811 7.2459,60.4351 C8.1519,61.0891 9.3429,61.1791 10.3419,60.6841 L21.0009,55.3561 L31.6569,60.6841 C32.0829,60.8971 32.5419,60.9991 33.0009,60.9991 C33.6189,60.9991 34.2339,60.8101 34.7529,60.4351 C35.6589,59.7811 36.1269,58.6801 35.9679,57.5761 L33.3129,38.9761 Z" id="Fill-279"></path>
                            <path d="M24,34 L18,34 L18,20.854 L13.659,23.026 L10.974,17.659 L19.659,13.318 C20.586,12.853 21.693,12.901 22.578,13.45 C23.46,13.996 24,14.959 24,16 L24,34 Z" id="Fill-280"></path>
                        </g>
                    </g>
                </g>
            </g>
        </g>
    </g>
</svg>