<?xml version="1.0" encoding="UTF-8"?>
<svg width="72px" height="63px" viewBox="0 0 72 63" version="1.1" xmlns="http://www.w3.org/2000/svg" xmlns:xlink="http://www.w3.org/1999/xlink">
    <!-- Generator: Sketch 49.3 (51167) - http://www.bohemiancoding.com/sketch -->
    <title>Free</title>
    <desc>Created with Sketch.</desc>
    <defs>
        <linearGradient x1="89.980251%" y1="14.7207755%" x2="2.59310114%" y2="97.5423757%" id="linearGradient-1">
            <stop stop-color="#FF00CF" offset="0%"></stop>
            <stop stop-color="#8535FF" offset="100%"></stop>
        </linearGradient>
    </defs>
    <g id="Web-UI" stroke="none" stroke-width="1" fill="none" fill-rule="evenodd">
        <g id="Telegram-Mac-App-Page" transform="translate(-1325.000000, -2688.000000)" fill="url(#linearGradient-1)">
            <g id="Switch-to-Telegram" transform="translate(406.000000, 2321.000000)">
                <g id="Features-Cols-Copy" transform="translate(0.000000, 127.000000)">
                    <g id="Group-7-Copy-9" transform="translate(800.000000, 240.000000)">
                        <g id="Free" transform="translate(119.000000, 0.000000)">
                            <path d="M36,6 C40.338,6 44.421,7.095 48,9.012 L48,2.388 C44.298,0.858 40.248,0 36,0 C21.759,0 9.711,9.504 5.826,22.5 L0,22.5 L9,34.5 L18,22.5 L12.171,22.5 C15.819,12.876 25.11,6 36,6" id="Fill-2144"></path>
                            <path d="M39,16.8048 C38.031,16.6068 37.029,16.4988 36,16.4988 C34.971,16.4988 33.969,16.6068 33,16.8048 L33,25.4988 L39,25.4988 L39,16.8048 Z" id="Fill-2145"></path>
                            <polygon id="Fill-2146" points="39 28.5 33 28.5 33 34.5 39 34.5"></polygon>
                            <path d="M42,17.7657 L42,25.4997 L49.734,25.4997 C48.225,22.0437 45.453,19.2747 42,17.7657" id="Fill-2147"></path>
                            <path d="M42,34.5 L50.697,34.5 C50.895,33.531 51,32.529 51,31.5 C51,30.474 50.895,29.469 50.697,28.5 L42,28.5 L42,34.5 Z" id="Fill-2148"></path>
                            <path d="M30,25.5 L30,17.766 C26.547,19.275 23.775,22.044 22.266,25.5 L30,25.5 Z" id="Fill-2149"></path>
                            <path d="M30,28.5 L21.303,28.5 C21.105,29.469 21,30.474 21,31.5 C21,32.529 21.105,33.531 21.303,34.5 L30,34.5 L30,28.5 Z" id="Fill-2150"></path>
                            <path d="M42,45.2328 C45.453,43.7208 48.222,40.9518 49.734,37.4988 L42,37.4988 L42,45.2328 Z" id="Fill-2151"></path>
                            <path d="M33,46.1967 C33.969,46.3947 34.971,46.4997 36,46.4997 C37.029,46.4997 38.031,46.3947 39,46.1967 L39,37.4997 L33,37.4997 L33,46.1967 Z" id="Fill-2152"></path>
                            <path d="M30,45.2328 L30,37.4988 L22.266,37.4988 C23.778,40.9518 26.547,43.7208 30,45.2328" id="Fill-2153"></path>
                            <path d="M63,31.5 L54,43.5 L58.425,43.5 C54.126,51.513 45.714,57 36,57 C31.662,57 27.579,55.905 24,53.988 L24,60.612 C27.702,62.145 31.752,63 36,63 C49.116,63 60.357,54.93 65.085,43.5 L72,43.5 L63,31.5 Z" id="Fill-2154"></path>
                            <path d="M9,52.5 C4.032,52.5 0,56.529 0,61.5 L18,61.5 C18,56.529 13.968,52.5 9,52.5" id="Fill-2155"></path>
                            <path d="M15,46.5 C15,43.185 12.312,40.5 9,40.5 C5.688,40.5 3,43.185 3,46.5 C3,49.812 5.688,52.5 9,52.5 C12.312,52.5 15,49.812 15,46.5" id="Fill-2156"></path>
                            <path d="M63,13.5 C58.032,13.5 54,17.529 54,22.5 L72,22.5 C72,17.529 67.968,13.5 63,13.5" id="Fill-2157"></path>
                            <path d="M69,7.5 C69,4.185 66.312,1.5 63,1.5 C59.688,1.5 57,4.185 57,7.5 C57,10.812 59.688,13.5 63,13.5 C66.312,13.5 69,10.812 69,7.5" id="Fill-2158"></path>
                        </g>
                    </g>
                </g>
            </g>
        </g>
    </g>
</svg>