<?xml version="1.0" encoding="UTF-8"?>
<svg width="72px" height="72px" viewBox="0 0 72 72" version="1.1" xmlns="http://www.w3.org/2000/svg" xmlns:xlink="http://www.w3.org/1999/xlink">
    <!-- Generator: Sketch 49.3 (51167) - http://www.bohemiancoding.com/sketch -->
    <title>Open</title>
    <desc>Created with Sketch.</desc>
    <defs>
        <linearGradient x1="89.980251%" y1="14.7207755%" x2="0%" y2="100%" id="linearGradient-1">
            <stop stop-color="#36911D" offset="0%"></stop>
            <stop stop-color="#44A02B" offset="100%"></stop>
        </linearGradient>
    </defs>
    <g id="Web-UI" stroke="none" stroke-width="1" fill="none" fill-rule="evenodd">
        <g id="Telegram-Mac-App-Page" transform="translate(-925.000000, -2686.000000)" fill="url(#linearGradient-1)">
            <g id="Switch-to-Telegram" transform="translate(406.000000, 2321.000000)">
                <g id="Features-Cols-Copy" transform="translate(0.000000, 127.000000)">
                    <g id="Group-7-Copy-10" transform="translate(400.000000, 238.000000)">
                        <g id="Open" transform="translate(119.000000, 0.000000)">
                            <path d="M27,6.0015 L45,6.0015 L45,18.0015 L39,18.0015 L39,21.0015 L33,21.0015 L33,18.0015 L27,18.0015 L27,6.0015 Z M54,18.0015 L51,18.0015 L51,3.0015 C51,1.3455 49.656,0.0015 48,0.0015 L24,0.0015 C22.344,0.0015 21,1.3455 21,3.0015 L21,18.0015 L18,18.0015 L18,27.0015 L54,27.0015 L54,18.0015 Z" id="Fill-1894"></path>
                            <path d="M63,66 L48,66 L48,63 L63,63 L63,66 Z M48,43.245 L51.879,47.124 C52.614,47.859 53.679,48.159 54.69,47.922 C55.701,47.682 56.517,46.938 56.847,45.951 L65.163,21 L66,21 L66,47.295 L61.146,57 L50.031,57 L45.519,45.723 L48,43.245 Z M69,15 L63,15 C61.707,15 60.561,15.828 60.153,17.052 L52.689,39.447 L50.121,36.882 C48.948,35.709 47.052,35.709 45.879,36.882 L39.879,42.882 C39.03,43.728 38.769,45 39.213,46.116 L43.698,57.327 C42.702,57.813 42,58.815 42,60 L42,69 C42,70.659 43.344,72 45,72 L66,72 C67.656,72 69,70.659 69,69 L69,60 C69,58.944 68.421,58.059 67.593,57.525 L71.682,49.344 C71.892,48.93 72,48.468 72,48 L72,18 C72,16.344 70.656,15 69,15 L69,15 Z" id="Fill-1895"></path>
                            <path d="M24,66 L9,66 L9,63 L24,63 L24,66 Z M6,21 L6.837,21 L15.153,45.951 C15.483,46.938 16.299,47.682 17.31,47.922 C18.321,48.159 19.386,47.859 20.121,47.124 L24,43.245 L26.481,45.723 L21.969,57 L10.854,57 L6,47.295 L6,21 Z M26.121,36.882 C24.948,35.709 23.052,35.709 21.879,36.882 L19.311,39.447 L11.847,17.052 C11.436,15.828 10.293,15 9,15 L3,15 C1.344,15 0,16.344 0,18 L0,48 C0,48.468 0.108,48.93 0.318,49.344 L4.407,57.525 C3.579,58.059 3,58.944 3,60 L3,69 C3,70.659 4.344,72 6,72 L27,72 C28.656,72 30,70.659 30,69 L30,60 C30,58.815 29.298,57.813 28.302,57.327 L32.787,46.116 C33.231,45 32.97,43.728 32.121,42.882 L26.121,36.882 Z" id="Fill-1896"></path>
                        </g>
                    </g>
                </g>
            </g>
        </g>
    </g>
</svg>