<?xml version="1.0" encoding="UTF-8"?>
<svg width="54px" height="61px" viewBox="0 0 54 61" version="1.1" xmlns="http://www.w3.org/2000/svg" xmlns:xlink="http://www.w3.org/1999/xlink">
    <!-- Generator: Sketch 49.3 (51167) - http://www.bohemiancoding.com/sketch -->
    <title>Secure</title>
    <desc>Created with Sketch.</desc>
    <defs>
        <linearGradient x1="89.980251%" y1="14.7207755%" x2="2.36640577%" y2="97.7572273%" id="linearGradient-1">
            <stop stop-color="#F42626" offset="0%"></stop>
            <stop stop-color="#FF4B4B" offset="100%"></stop>
        </linearGradient>
    </defs>
    <g id="Web-UI" stroke="none" stroke-width="1" fill="none" fill-rule="evenodd">
        <g id="Telegram-Mac-App-Page" transform="translate(-535.000000, -2930.000000)" fill="url(#linearGradient-1)">
            <g id="Switch-to-Telegram" transform="translate(406.000000, 2321.000000)">
                <g id="Features-Cols-Copy" transform="translate(0.000000, 127.000000)">
                    <g id="Group-7-Copy-14" transform="translate(0.000000, 482.000000)">
                        <g id="Secure" transform="translate(128.000000, 0.000000)">
                            <path d="M27.9985,53.6088 C21.0745,49.8078 6.9985,40.0128 6.9985,30.0018 L6.9985,9.0018 L14.1985,14.4018 C15.2665,15.1998 16.7335,15.1998 17.8015,14.4018 L27.9985,6.7518 L38.1985,14.4018 C39.2665,15.1998 40.7335,15.1998 41.8015,14.4018 L48.9985,9.0018 L48.9985,30.0018 C48.9985,39.9858 34.9195,49.7988 27.9985,53.6088 M53.3425,0.3168 C52.3225,-0.1902 51.1075,-0.0792 50.1985,0.6048 L39.9985,8.2518 L29.8015,0.6048 C28.7335,-0.1992 27.2665,-0.1992 26.1985,0.6048 L15.9985,8.2518 L5.8015,0.6048 C4.8865,-0.0792 3.6715,-0.1902 2.6575,0.3168 C1.6405,0.8268 0.9985,1.8648 0.9985,3.0018 L0.9985,30.0018 C0.9985,46.5738 25.6045,59.1528 26.6515,59.6808 L27.9985,60.3588 L29.3485,59.6808 C30.3955,59.1528 54.9985,46.5738 54.9985,30.0018 L54.9985,3.0018 C54.9985,1.8648 54.3595,0.8268 53.3425,0.3168" id="Fill-888"></path>
                            <path d="M28,36.0015 C24.688,36.0015 22,33.3105 22,30.0015 C22,26.6895 24.688,24.0015 28,24.0015 C31.312,24.0015 34,26.6895 34,30.0015 C34,33.3105 31.312,36.0015 28,36.0015 M38.305,23.9385 L40.732,21.5115 L36.49,17.2695 L34.063,19.6995 C33.115,19.1385 32.092,18.7095 31.003,18.4275 L31.003,15.0015 L25.003,15.0015 L25.003,18.4275 C23.911,18.7095 22.888,19.1385 21.943,19.6995 L19.516,17.2725 L15.274,21.5145 L17.701,23.9415 C17.143,24.8865 16.711,25.9095 16.429,27.0015 L13,27.0015 L13,33.0015 L16.429,33.0015 C16.708,34.0905 17.14,35.1135 17.698,36.0615 L15.271,38.4885 L19.513,42.7305 L21.94,40.3035 C22.888,40.8645 23.914,41.2965 25.006,41.5785 L25.006,45.0045 L31.006,45.0045 L31.006,41.5755 C32.095,41.2935 33.118,40.8615 34.066,40.3035 L36.493,42.7305 L40.735,38.4855 L38.308,36.0585 C38.866,35.1135 39.298,34.0905 39.577,33.0015 L43.006,33.0015 L43.006,27.0015 L39.577,27.0015 C39.295,25.9095 38.863,24.8865 38.305,23.9385" id="Fill-889"></path>
                        </g>
                    </g>
                </g>
            </g>
        </g>
    </g>
</svg>